:FULLY-SPECIFIED
:FORCE-ALL-JOINTS-BE-3DOF
:DEGREES
194
root 8.30158 16.5937 -9.99212 7.93741 3.88537 -2.12939
lfemur -34.68 7.94866 -19.8954
ltibia 56.5681 -0 0
lfoot -11.7935 10.8849 -0.0487513
ltoes -2.42471 0 0
rfemur -12.5942 3.67156 26.3582
rtibia 27.6426 -0 0
rfoot -15.0923 1.83471 0.121215
rtoes -14.4136 0 0
lowerback -4.49503 1.28835 0.372797
upperback -2.13346 1.68871 3.06358
thorax 0.246025 0.857444 3.02442
lowerneck -14.0163 -6.85253 -15.5552
upperneck 13.4227 -8.82097 16.0018
head 7.89907 -3.71949 6.94245
lclavicle -2.11309e-14 -1.40518e-14 5.78133e-31
lhumerus -48.5597 -10.048 94.9851
lradius 30.5697 -0 0
lwrist 13.4803 0 0
lhand -14.003 -24.1304 0.0312759
lfingers 7.12502 -0 0
lthumb 12.1244 5.46739 0.0226224
rclavicle -2.11309e-14 -1.40518e-14 5.78133e-31
rhumerus -41.285 9.68632 -79.6476
rradius 44.5529 -0 0
rwrist -21.9393 0 0
rhand -31.1695 -25.1068 0.000891116
rfingers 7.12502 -0 0
rthumb -4.44685 -55.0398 0.000843071
195
root 8.32064 16.5879 -9.83948 7.97787 3.70691 -2.1375
lfemur -34.8857 7.9768 -19.9461
ltibia 56.2923 -0 0
lfoot -11.6957 10.7729 -0.0525761
ltoes -2.37701 0 0
rfemur -12.0903 3.62481 26.273
rtibia 27.5676 -0 0
rfoot -14.6587 1.89719 0.130747
rtoes -14.4363 0 0
lowerback -4.54539 1.30484 0.367171
upperback -2.14482 1.71039 3.03988
thorax 0.262011 0.867978 3.00585
lowerneck -14.1062 -6.83807 -15.5211
upperneck 13.4909 -8.79926 15.9799
head 7.93158 -3.70495 6.93304
lclavicle -2.14375e-14 -1.36282e-14 6.23477e-31
lhumerus -48.5066 -9.9492 94.8486
lradius 30.3475 -0 0
lwrist 13.0957 0 0
lhand -13.8485 -24.085 0.0337297
lfingers 7.12502 -0 0
lthumb 12.2732 5.50152 0.0243973
rclavicle -2.14375e-14 -1.36282e-14 6.23477e-31
rhumerus -41.3863 9.66412 -79.7991
rradius 44.5141 -0 0
rwrist -21.967 0 0
rhand -31.1548 -25.0931 0.000961008
rfingers 7.12502 -0 0
rthumb -4.43267 -55.0265 0.000909195
196
root 8.33969 16.5822 -9.68685 8.01836 3.52846 -2.14572
lfemur -35.0914 8.00476 -19.9969
ltibia 56.0166 -0 0
lfoot -11.598 10.6609 -0.0562098
ltoes -2.32931 0 0
rfemur -11.5863 3.57881 26.1873
rtibia 27.4926 -0 0
rfoot -14.225 1.95974 0.139807
rtoes -14.4591 0 0
lowerback -4.59574 1.32132 0.361531
upperback -2.1562 1.73207 3.01616
thorax 0.277994 0.878516 2.98729
lowerneck -14.196 -6.82355 -15.4871
upperneck 13.5591 -8.77752 15.9581
head 7.96409 -3.6904 6.92363
lclavicle -2.17442e-14 -1.32045e-14 6.66554e-31
lhumerus -48.4537 -9.85025 94.7123
lradius 30.1254 -0 0
lwrist 12.7111 0 0
lhand -13.694 -24.0395 0.0360611
lfingers 7.12502 -0 0
lthumb 12.422 5.53566 0.0260835
rclavicle -2.17442e-14 -1.32045e-14 6.66554e-31
rhumerus -41.4875 9.64166 -79.9506
rradius 44.4753 -0 0
rwrist -21.9947 0 0
rhand -31.1402 -25.0795 0.0010274
rfingers 7.12502 -0 0
rthumb -4.41848 -55.0131 0.000972012
197
root 8.35874 16.5764 -9.53421 8.05886 3.35002 -2.15407
lfemur -35.2972 8.03255 -20.0478
ltibia 55.7408 -0 0
lfoot -11.5002 10.5488 -0.0596524
ltoes -2.28162 0 0
rfemur -11.0822 3.53356 26.1013
rtibia 27.4175 -0 0
rfoot -13.7913 2.02235 0.148393
rtoes -14.4818 0 0
lowerback -4.6461 1.3378 0.355876
upperback -2.16758 1.75374 2.99245
thorax 0.293974 0.889059 2.96873
lowerneck -14.2859 -6.80897 -15.4531
upperneck 13.6273 -8.75576 15.9363
head 7.99659 -3.67585 6.91424
lclavicle -2.20508e-14 -1.27809e-14 7.07363e-31
lhumerus -48.4012 -9.75118 94.5761
lradius 29.9032 -0 0
lwrist 12.3266 0 0
lhand -13.5394 -23.9941 0.0382698
lfingers 7.12502 -0 0
lthumb 12.5709 5.5698 0.027681
rclavicle -2.20508e-14 -1.27809e-14 7.07363e-31
rhumerus -41.5887 9.61893 -80.1021
rradius 44.4365 -0 0
rwrist -22.0224 0 0
rhand -31.1255 -25.0659 0.00109031
rfingers 7.12502 -0 0
rthumb -4.4043 -54.9998 0.00103152
198
root 8.37779 16.5706 -9.38157 8.09938 3.17158 -2.16255
lfemur -35.503 8.06015 -20.0988
ltibia 55.465 -0 0
lfoot -11.4025 10.4368 -0.0629039
ltoes -2.23392 0 0
rfemur -10.5781 3.48907 26.0149
rtibia 27.3425 -0 0
rfoot -13.3576 2.08503 0.156504
rtoes -14.5046 0 0
lowerback -4.69646 1.35428 0.350206
upperback -2.17898 1.77541 2.96873
thorax 0.30995 0.899608 2.95017
lowerneck -14.3757 -6.79434 -15.4191
upperneck 13.6955 -8.73398 15.9145
head 8.02909 -3.66129 6.90485
lclavicle -2.23574e-14 -1.23572e-14 7.45906e-31
lhumerus -48.3488 -9.65199 94.4401
lradius 29.6811 -0 0
lwrist 11.942 0 0
lhand -13.3849 -23.9486 0.0403559
lfingers 7.12502 -0 0
lthumb 12.7197 5.60395 0.0291899
rclavicle -2.23574e-14 -1.23572e-14 7.45906e-31
rhumerus -41.6898 9.59594 -80.2535
rradius 44.3978 -0 0
rwrist -22.05 0 0
rhand -31.1108 -25.0522 0.00114972
rfingers 7.12502 -0 0
rthumb -4.39012 -54.9864 0.00108773
199
root 8.39685 16.5648 -9.22893 8.13992 2.99314 -2.17115
lfemur -35.7088 8.08757 -20.1499
ltibia 55.1893 -0 0
lfoot -11.3047 10.3248 -0.0659642
ltoes -2.18622 0 0
rfemur -10.074 3.44534 25.9281
rtibia 27.2675 -0 0
rfoot -12.9239 2.14777 0.164141
rtoes -14.5273 0 0
lowerback -4.74682 1.37074 0.344522
upperback -2.19038 1.79707 2.945
thorax 0.325923 0.910162 2.93161
lowerneck -14.4655 -6.77966 -15.3851
upperneck 13.7637 -8.71217 15.8928
head 8.06159 -3.64673 6.89547
lclavicle -2.2664e-14 -1.19336e-14 7.82181e-31
lhumerus -48.2968 -9.55267 94.3042
lradius 29.459 -0 0
lwrist 11.5574 0 0
lhand -13.2304 -23.9031 0.0423194
lfingers 7.12502 -0 0
lthumb 12.8685 5.6381 0.03061
rclavicle -2.2664e-14 -1.19336e-14 7.82181e-31
rhumerus -41.7908 9.57268 -80.4048
rradius 44.359 -0 0
rwrist -22.0777 0 0
rhand -31.0961 -25.0386 0.00120563
rfingers 7.12502 -0 0
rthumb -4.37593 -54.9731 0.00114063
200
root 8.4159 16.559 -9.07629 8.18048 2.81471 -2.17987
lfemur -35.9147 8.1148 -20.2011
ltibia 54.9135 -0 0
lfoot -11.2069 10.2128 -0.0688334
ltoes -2.13852 0 0
rfemur -9.56982 3.40238 25.841
rtibia 27.1924 -0 0
rfoot -12.4902 2.21057 0.171303
rtoes -14.5501 0 0
lowerback -4.79718 1.38721 0.338824
upperback -2.20179 1.81873 2.92127
thorax 0.341892 0.920721 2.91305
lowerneck -14.5553 -6.76493 -15.3512
upperneck 13.8319 -8.69033 15.8711
head 8.09408 -3.63216 6.8861
lclavicle -2.29707e-14 -1.151e-14 8.16188e-31
lhumerus -48.245 -9.45323 94.1684
lradius 29.2368 -0 0
lwrist 11.1729 0 0
lhand -13.0759 -23.8577 0.0441603
lfingers 7.12502 -0 0
lthumb 13.0174 5.67225 0.0319414
rclavicle -2.29707e-14 -1.151e-14 8.16188e-31
rhumerus -41.8918 9.54916 -80.5561
rradius 44.3202 -0 0
rwrist -22.1054 0 0
rhand -31.0814 -25.025 0.00125805
rfingers 7.12502 -0 0
rthumb -4.36175 -54.9597 0.00119022
201
root 8.43495 16.5533 -8.92366 8.22106 2.63629 -2.18872
lfemur -36.1206 8.14186 -20.2524
ltibia 54.6377 -0 0
lfoot -11.1091 10.1007 -0.0715114
ltoes -2.09083 0 0
rfemur -9.0656 3.36018 25.7534
rtibia 27.1174 -0 0
rfoot -12.0564 2.27341 0.177989
rtoes -14.5728 0 0
lowerback -4.84755 1.40367 0.333111
upperback -2.21322 1.84038 2.89753
thorax 0.357858 0.931285 2.8945
lowerneck -14.6451 -6.75015 -15.3173
upperneck 13.9 -8.66847 15.8494
head 8.12657 -3.61759 6.87673
lclavicle -2.32773e-14 -1.10863e-14 8.47929e-31
lhumerus -48.1934 -9.35367 94.0327
lradius 29.0147 -0 0
lwrist 10.7883 0 0
lhand -12.9214 -23.8122 0.0458784
lfingers 7.12502 -0 0
lthumb 13.1662 5.70641 0.0331842
rclavicle -2.32773e-14 -1.10863e-14 8.47929e-31
rhumerus -41.9927 9.52538 -80.7073
rradius 44.2814 -0 0
rwrist -22.1331 0 0
rhand -31.0667 -25.0113 0.00130697
rfingers 7.12502 -0 0
rthumb -4.34757 -54.9464 0.00123651
202
root 8.454 16.5475 -8.77102 8.26167 2.45787 -2.1977
lfemur -36.3265 8.16873 -20.3039
ltibia 54.362 -0 0
lfoot -11.0114 9.98868 -0.0739982
ltoes -2.04313 0 0
rfemur -8.56135 3.31875 25.6655
rtibia 27.0424 -0 0
rfoot -11.6227 2.33631 0.184199
rtoes -14.5956 0 0
lowerback -4.89792 1.42012 0.327383
upperback -2.22465 1.86203 2.87379
thorax 0.373821 0.941855 2.87595
lowerneck -14.7349 -6.73531 -15.2834
upperneck 13.9682 -8.64658 15.8277
head 8.15906 -3.60301 6.86738
lclavicle -2.35839e-14 -1.06627e-14 8.77403e-31
lhumerus -48.1421 -9.25399 93.8972
lradius 28.7925 -0 0
lwrist 10.4037 0 0
lhand -12.7668 -23.7667 0.047474
lfingers 7.12502 -0 0
lthumb 13.315 5.74057 0.0343381
rclavicle -2.35839e-14 -1.06627e-14 8.77403e-31
rhumerus -42.0935 9.50134 -80.8585
rradius 44.2427 -0 0
rwrist -22.1607 0 0
rhand -31.052 -24.9977 0.0013524
rfingers 7.12502 -0 0
rthumb -4.33338 -54.933 0.00127949
203
root 8.47306 16.5417 -8.61838 8.30229 2.27947 -2.2068
lfemur -36.5325 8.19542 -20.3554
ltibia 54.0862 -0 0
lfoot -10.9136 9.87664 -0.0762937
ltoes -1.99543 0 0
rfemur -8.05705 3.2781 25.5772
rtibia 26.9673 -0 0
rfoot -11.189 2.39925 0.189933
rtoes -14.6183 0 0
lowerback -4.94829 1.43657 0.321641
upperback -2.23609 1.88367 2.85005
thorax 0.389781 0.952429 2.85741
lowerneck -14.8247 -6.72042 -15.2496
upperneck 14.0363 -8.62467 15.8061
head 8.19154 -3.58843 6.85803
lclavicle -2.38906e-14 -1.0239e-14 9.04609e-31
lhumerus -48.0911 -9.15419 93.7618
lradius 28.5704 -0 0
lwrist 10.0192 0 0
lhand -12.6123 -23.7212 0.0489468
lfingers 7.12502 -0 0
lthumb 13.4638 5.77473 0.0354034
rclavicle -2.38906e-14 -1.0239e-14 9.04609e-31
rhumerus -42.1942 9.47703 -81.0097
rradius 44.2039 -0 0
rwrist -22.1884 0 0
rhand -31.0374 -24.9841 0.00139434
rfingers 7.12502 -0 0
rthumb -4.3192 -54.9196 0.00131916
204
root 8.49211 16.5359 -8.46574 8.34294 2.10106 -2.21603
lfemur -36.7385 8.22193 -20.407
ltibia 53.8105 -0 0
lfoot -10.8158 9.76459 -0.078398
ltoes -1.94774 0 0
rfemur -7.5527 3.23822 25.4886
rtibia 26.8923 -0 0
rfoot -10.7552 2.46224 0.19519
rtoes -14.6411 0 0
lowerback -4.99866 1.45302 0.315884
upperback -2.24753 1.90531 2.8263
thorax 0.405737 0.963009 2.83887
lowerneck -14.9144 -6.70547 -15.2157
upperneck 14.1044 -8.60273 15.7845
head 8.22403 -3.57384 6.84869
lclavicle -2.41972e-14 -9.81541e-15 9.29548e-31
lhumerus -48.0403 -9.05427 93.6265
lradius 28.3482 -0 0
lwrist 9.6346 0 0
lhand -12.4578 -23.6757 0.0502969
lfingers 7.12502 -0 0
lthumb 13.6127 5.80889 0.0363799
rclavicle -2.41972e-14 -9.81541e-15 9.29548e-31
rhumerus -42.2949 9.45246 -81.1607
rradius 44.1651 -0 0
rwrist -22.2161 0 0
rhand -31.0227 -24.9704 0.00143278
rfingers 7.12502 -0 0
rthumb -4.30502 -54.9063 0.00135553
